<svg width="653" height="454" viewBox="0 0 653 454" fill="none" xmlns="http://www.w3.org/2000/svg">
<path d="M370.81 138.268L371.874 138.02C373.905 137.01 376.022 136.512 378.025 136.59L382.212 135.616L461.666 168.137L459.813 173.034L385.606 146.515L451.154 192.83L438.085 212.029L365.867 163.191C360.65 159.664 360.219 151.192 364.901 144.268C366.595 141.763 368.727 139.808 371.003 138.496L370.811 138.272L370.81 138.268Z" fill="url(#paint0_linear_4378_31415)"/>
<path d="M362.789 162.808C358.777 158.122 358.879 149.987 363.424 143.267C366.077 139.346 369.991 136.027 374.443 134.347C376.413 133.602 378.558 133.18 380.665 133.427C383.326 133.738 386.034 135.391 388.512 136.4C400.861 141.432 413.208 146.466 425.557 151.498C437.906 156.53 450.253 161.564 462.601 166.596C462.848 166.697 463.095 166.797 463.343 166.899C464.398 167.328 465.654 168.083 465.495 169.214C465.386 169.987 464.578 170.509 463.798 170.559C463.017 170.612 462.261 170.312 461.537 170.016C449.326 164.866 436.984 160.007 424.712 155.004C412.509 150.028 400.297 145.076 388.109 140.061C386.88 139.556 385.652 139.049 384.424 138.541C382.79 137.867 380.967 136.858 379.176 136.939C377.641 137.01 376.162 137.434 374.764 138.06C371.376 139.579 368.447 142.198 366.374 145.26C362.249 151.36 362.47 158.739 366.861 161.711L439.079 210.548C439.895 211.098 440.107 212.206 439.558 213.021C439.007 213.836 437.897 214.049 437.084 213.497L364.865 164.66C364.081 164.129 363.386 163.505 362.785 162.803L362.789 162.808Z" fill="#005522"/>
<path d="M304.664 79.5384C305.333 79.4684 305.843 78.8923 305.814 78.2112C305.784 77.5013 305.185 76.9498 304.475 76.9807H304.452L303.541 55.4742L302.051 54.4146L302.098 55.536L300.609 54.4763L301.567 77.1062L301.195 77.1227C300.485 77.1535 299.934 77.7523 299.965 78.4622C299.995 79.1721 300.594 79.7235 301.304 79.6927L301.434 79.6865C300.944 80.3347 299.86 82.2236 300.022 86.0611C300.23 90.9871 299.57 91.4562 299.57 91.4562C299.57 91.4562 301.965 92.1167 304.368 92.0159C306.771 91.9151 307.473 90.4809 307.473 90.4809C307.473 90.4809 307.609 81.9911 304.666 79.5425L304.664 79.5384Z" fill="#005522"/>
<path d="M349.949 25.0929L312.15 41.8339L327.473 76.4311C327.473 76.4311 345.527 70.54 371.245 73.1779C386.575 52.3608 403.071 42.9512 403.071 42.9512L387.748 8.354L349.949 25.095V25.0929Z" fill="url(#paint1_linear_4378_31415)"/>
<path d="M340.525 3.81725L283.994 60.676L362.017 52.3446L420.623 0.166992L340.525 3.81725Z" fill="url(#paint2_linear_4378_31415)"/>
<path d="M169.266 178.115L245.613 192.093C251.127 193.103 254.779 198.391 253.769 203.906C252.759 209.42 247.471 213.073 241.956 212.062L165.61 198.085" fill="url(#paint3_linear_4378_31415)"/>
<path d="M243.789 214.008C243.08 214.008 242.359 213.945 241.635 213.813L165.288 199.835C164.321 199.658 163.679 198.73 163.856 197.763C164.033 196.794 164.961 196.154 165.93 196.331L242.277 210.309C246.814 211.14 251.185 208.124 252.016 203.582C252.847 199.043 249.831 194.675 245.289 193.844L168.943 179.866C167.976 179.689 167.334 178.761 167.511 177.794C167.688 176.827 168.616 176.187 169.585 176.362L245.931 190.339C252.403 191.525 256.705 197.753 255.52 204.224C254.467 209.973 249.436 214.008 243.787 214.008H243.789Z" fill="#005522"/>
<path d="M217.96 198.893L218.322 222.35L223.83 216.669L231.191 225.759L230.771 201.074L217.96 198.893Z" fill="#005522"/>
<path d="M84.3221 453.631C81.8506 447.916 77.5527 442.935 71.6966 439.659C67.0776 437.073 62.058 435.868 57.118 435.909C55.5892 432.292 52.8938 429.137 49.2027 427.072C41.6763 422.859 32.459 424.535 26.8444 430.589C20.8026 427.823 13.5502 430.115 10.248 436.015C8.79278 438.616 8.33913 441.503 8.75448 444.237C5.57601 446.623 2.83055 449.695 0.762629 453.389C0.718442 453.469 0.674252 453.551 0.630066 453.631H84.3192H84.3221Z" fill="url(#paint4_linear_4378_31415)"/>
<path d="M227.418 453.631H280.18V308.712H227.418V453.631Z" fill="url(#paint5_linear_4378_31415)"/>
<path d="M253.798 287.935L304.815 315.039H202.78L253.798 287.935Z" fill="url(#paint6_linear_4378_31415)"/>
<path d="M266.175 368.608H241.422V340.34C241.422 333.509 246.969 327.965 253.797 327.965C260.629 327.965 266.172 333.512 266.172 340.34V368.608H266.175Z" fill="#005522"/>
<path d="M266.175 433.123H241.422V404.855C241.422 398.024 246.969 392.48 253.797 392.48C260.629 392.48 266.172 398.027 266.172 404.855V433.123H266.175Z" fill="#005522"/>
<path d="M462.245 308.711H409.484V453.631H462.245V308.711Z" fill="url(#paint7_linear_4378_31415)"/>
<path d="M435.866 287.935L384.848 315.039H486.883L435.866 287.935Z" fill="url(#paint8_linear_4378_31415)"/>
<path d="M435.866 327.962C442.697 327.962 448.241 333.509 448.241 340.338V368.605H423.488V340.338C423.488 333.506 429.035 327.962 435.863 327.962H435.866Z" fill="#005522"/>
<path d="M435.866 392.483C442.697 392.483 448.241 398.03 448.241 404.859V433.126H423.488V404.859C423.488 398.027 429.035 392.483 435.863 392.483H435.866Z" fill="#005522"/>
<path d="M409.484 249.053H280.162V453.633H409.484V249.053Z" fill="url(#paint9_linear_4378_31415)"/>
<path d="M409.484 315.039H280.162V453.631H409.484V315.039Z" fill="url(#paint10_linear_4378_31415)"/>
<path d="M409.484 392.482H280.162V453.633H409.484V392.482Z" fill="url(#paint11_linear_4378_31415)"/>
<path d="M311.732 392.482H301.292V453.633H311.732V392.482Z" fill="#08B64F"/>
<path d="M388.357 392.482H377.917V453.633H388.357V392.482Z" fill="#08B64F"/>
<path d="M367.353 406.402H322.298V453.631H367.353V406.402Z" fill="#005522"/>
<path d="M383.137 324.993C391.47 324.993 398.237 331.759 398.237 340.093V374.582H368.034V340.093C368.034 331.759 374.8 324.993 383.134 324.993H383.137Z" fill="#005522"/>
<path d="M344.824 324.993C353.158 324.993 359.924 331.759 359.924 340.093V374.582H329.721V340.093C329.721 331.759 336.488 324.993 344.821 324.993H344.824Z" fill="#005522"/>
<path d="M306.511 324.993C314.845 324.993 321.611 331.759 321.611 340.093V374.582H291.408V340.093C291.408 331.759 298.175 324.993 306.508 324.993H306.511Z" fill="#005522"/>
<path d="M409.484 382.789H280.162V392.483H409.484V382.789Z" fill="#08B64F"/>
<path d="M419.8 283.823H269.846V315.039H419.8V283.823Z" fill="#7EFF5F"/>
<path d="M416.159 287.935H273.49V310.924H416.159V287.935Z" fill="#08B64F"/>
<path d="M344.824 206.546L264.814 249.054H424.834L344.824 206.546Z" fill="url(#paint12_linear_4378_31415)"/>
<path d="M379.905 283.823H309.743C309.743 269.409 321.653 257.723 344.093 257.723H345.552C366.525 257.723 379.902 269.409 379.902 283.823H379.905Z" fill="#005522"/>
<path d="M634.882 287.935H462.246V453.631H634.882V287.935Z" fill="url(#paint13_linear_4378_31415)"/>
<path d="M634.882 378.685H462.246V453.631H634.882V378.685Z" fill="url(#paint14_linear_4378_31415)"/>
<path d="M488.872 384.968C496.964 384.968 503.536 391.54 503.536 399.632V433.126H474.208V399.632C474.208 391.54 480.78 384.968 488.872 384.968Z" fill="#005522"/>
<path d="M529.771 384.968C537.863 384.968 544.435 391.54 544.435 399.632V433.126H515.107V399.632C515.107 391.54 521.679 384.968 529.771 384.968Z" fill="#005522"/>
<path d="M570.671 384.968C578.763 384.968 585.335 391.54 585.335 399.632V433.126H556.007V399.632C556.007 391.54 562.579 384.968 570.671 384.968Z" fill="#005522"/>
<path d="M611.569 384.968C619.661 384.968 626.233 391.54 626.233 399.632V433.126H596.905V399.632C596.905 391.54 603.477 384.968 611.569 384.968Z" fill="#005522"/>
<path d="M488.872 303.887C496.964 303.887 503.536 310.459 503.536 318.551V352.045H474.208V318.551C474.208 310.459 480.78 303.887 488.872 303.887Z" fill="#005522"/>
<path d="M529.771 303.886C537.863 303.886 544.435 310.458 544.435 318.55V352.044H515.107V318.55C515.107 310.458 521.679 303.886 529.771 303.886Z" fill="#005522"/>
<path d="M570.671 303.886C578.763 303.886 585.335 310.458 585.335 318.55V352.044H556.007V318.55C556.007 310.458 562.579 303.886 570.671 303.886Z" fill="#005522"/>
<path d="M611.569 303.886C619.661 303.886 626.233 310.458 626.233 318.55V352.044H596.905V318.55C596.905 310.458 603.477 303.886 611.569 303.886Z" fill="#005522"/>
<path d="M464.051 271.716L446.895 287.935H652.038L634.882 271.716H464.051Z" fill="url(#paint15_linear_4378_31415)"/>
<path d="M638.611 370.484H458.516V378.688H638.611V370.484Z" fill="#08B64F"/>
<path d="M54.7821 453.634H227.418L227.418 287.938H54.7821L54.7821 453.634Z" fill="url(#paint16_linear_4378_31415)"/>
<path d="M54.7821 453.634H227.418V378.688H54.7821V453.634Z" fill="url(#paint17_linear_4378_31415)"/>
<path d="M215.458 433.123H186.131V399.63C186.131 391.538 192.702 384.966 200.794 384.966C208.886 384.966 215.458 391.538 215.458 399.63V433.123Z" fill="#005522"/>
<path d="M174.557 433.123H145.229V399.63C145.229 391.538 151.801 384.966 159.893 384.966C167.985 384.966 174.557 391.538 174.557 399.63V433.123Z" fill="#005522"/>
<path d="M133.658 433.123H104.33V399.63C104.33 391.538 110.902 384.966 118.994 384.966C127.086 384.966 133.658 391.538 133.658 399.63V433.123Z" fill="#005522"/>
<path d="M92.7586 433.123H63.4306V399.63C63.4306 391.538 70.0026 384.966 78.0946 384.966C86.1866 384.966 92.7586 391.538 92.7586 399.63V433.123Z" fill="#005522"/>
<path d="M215.458 352.041H186.131V318.548C186.131 310.456 192.702 303.884 200.794 303.884C208.886 303.884 215.458 310.456 215.458 318.548V352.041Z" fill="#005522"/>
<path d="M174.557 352.041H145.229V318.548C145.229 310.456 151.801 303.884 159.893 303.884C167.985 303.884 174.557 310.456 174.557 318.548V352.041Z" fill="#005522"/>
<path d="M133.658 352.041H104.33V318.548C104.33 310.456 110.902 303.884 118.994 303.884C127.086 303.884 133.658 310.456 133.658 318.548V352.041Z" fill="#005522"/>
<path d="M92.7586 352.041H63.4306V318.548C63.4306 310.456 70.0026 303.884 78.0946 303.884C86.1866 303.884 92.7586 310.456 92.7586 318.548V352.041Z" fill="#005522"/>
<path d="M225.613 271.716L242.769 287.935H37.626L54.7821 271.716H225.613Z" fill="url(#paint18_linear_4378_31415)"/>
<path d="M51.0527 378.685H231.148V370.481H51.0527V378.685Z" fill="#08B64F"/>
<path d="M208.273 453.631C207.119 450.485 205.107 447.743 202.37 445.937C200.211 444.514 197.863 443.851 195.554 443.872C194.838 441.881 193.58 440.143 191.854 439.006C188.337 436.687 184.027 437.609 181.399 440.941C178.574 439.418 175.184 440.679 173.64 443.928C172.96 445.36 172.748 446.95 172.942 448.456C171.454 449.769 170.173 451.46 169.207 453.496C169.186 453.54 169.166 453.584 169.145 453.628H208.273V453.631Z" fill="url(#paint19_linear_4378_31415)"/>
<path d="M102.453 453.614L46.2541 453.631C46.2365 446.461 51.9895 440.59 59.1801 440.487C59.9667 440.476 60.7384 440.534 61.4896 440.655C62.9154 438.411 65.4075 436.902 68.2649 436.861C69.9675 436.837 71.5553 437.335 72.8779 438.207C73.9119 436.902 75.5026 436.057 77.2966 436.03C78.5073 436.013 79.6355 436.372 80.5693 436.997C81.9214 435.948 83.6093 435.314 85.4504 435.288C89.7277 435.226 93.2803 438.464 93.6927 442.644C96.0728 443.318 97.8315 445.489 97.8698 448.087C97.8698 448.249 97.8668 448.408 97.855 448.567C99.7992 449.819 101.39 451.543 102.447 453.614H102.453Z" fill="url(#paint20_linear_4378_31415)"/>
<defs>
<linearGradient id="paint0_linear_4378_31415" x1="372.773" y1="150.985" x2="441.866" y2="186.02" gradientUnits="userSpaceOnUse">
<stop stop-color="#08B64F"/>
<stop offset="0.52" stop-color="#44DB57"/>
<stop offset="1" stop-color="#7EFF5F"/>
</linearGradient>
<linearGradient id="paint1_linear_4378_31415" x1="367.678" y1="89.7432" x2="359.911" y2="53.2044" gradientUnits="userSpaceOnUse">
<stop stop-color="#08B64F"/>
<stop offset="0.63" stop-color="#037933"/>
<stop offset="1" stop-color="#005522"/>
</linearGradient>
<linearGradient id="paint2_linear_4378_31415" x1="282.96" y1="58.3342" x2="419.586" y2="-2.18143" gradientUnits="userSpaceOnUse">
<stop offset="0.03" stop-color="#08B64F"/>
<stop offset="0.14" stop-color="#24C752"/>
<stop offset="0.29" stop-color="#44DB57"/>
<stop offset="0.45" stop-color="#5DEB5A"/>
<stop offset="0.62" stop-color="#6FF65D"/>
<stop offset="0.8" stop-color="#7AFC5E"/>
<stop offset="1" stop-color="#7EFF5F"/>
</linearGradient>
<linearGradient id="paint3_linear_4378_31415" x1="237.035" y1="214.907" x2="180.744" y2="178.477" gradientUnits="userSpaceOnUse">
<stop stop-color="#08B64F"/>
<stop offset="0.52" stop-color="#44DB57"/>
<stop offset="1" stop-color="#7EFF5F"/>
</linearGradient>
<linearGradient id="paint4_linear_4378_31415" x1="15.3206" y1="437.877" x2="62.3025" y2="447.945" gradientUnits="userSpaceOnUse">
<stop stop-color="#08B64F"/>
<stop offset="0.63" stop-color="#037933"/>
<stop offset="1" stop-color="#005522"/>
</linearGradient>
<linearGradient id="paint5_linear_4378_31415" x1="280.18" y1="381.172" x2="227.418" y2="381.172" gradientUnits="userSpaceOnUse">
<stop stop-color="#068C3D"/>
<stop offset="0.12" stop-color="#23A042"/>
<stop offset="0.29" stop-color="#48B948"/>
<stop offset="0.44" stop-color="#5FC94C"/>
<stop offset="0.53" stop-color="#68CF4E"/>
<stop offset="0.61" stop-color="#5DC74C"/>
<stop offset="0.76" stop-color="#3FB346"/>
<stop offset="0.96" stop-color="#10933E"/>
<stop offset="1" stop-color="#068C3D"/>
</linearGradient>
<linearGradient id="paint6_linear_4378_31415" x1="253.535" y1="271.872" x2="253.783" y2="312.388" gradientUnits="userSpaceOnUse">
<stop stop-color="#08B64F"/>
<stop offset="0.63" stop-color="#037933"/>
<stop offset="1" stop-color="#005522"/>
</linearGradient>
<linearGradient id="paint7_linear_4378_31415" x1="409.484" y1="-198.166" x2="462.245" y2="-198.166" gradientUnits="userSpaceOnUse">
<stop stop-color="#068C3D"/>
<stop offset="0.12" stop-color="#23A042"/>
<stop offset="0.29" stop-color="#48B948"/>
<stop offset="0.44" stop-color="#5FC94C"/>
<stop offset="0.53" stop-color="#68CF4E"/>
<stop offset="0.61" stop-color="#5DC74C"/>
<stop offset="0.76" stop-color="#3FB346"/>
<stop offset="0.96" stop-color="#10933E"/>
<stop offset="1" stop-color="#068C3D"/>
</linearGradient>
<linearGradient id="paint8_linear_4378_31415" x1="436.131" y1="271.872" x2="435.881" y2="312.388" gradientUnits="userSpaceOnUse">
<stop stop-color="#08B64F"/>
<stop offset="0.63" stop-color="#037933"/>
<stop offset="1" stop-color="#005522"/>
</linearGradient>
<linearGradient id="paint9_linear_4378_31415" x1="344.824" y1="236.622" x2="344.824" y2="435.078" gradientUnits="userSpaceOnUse">
<stop stop-color="#08B64F"/>
<stop offset="0.05" stop-color="#1DC351"/>
<stop offset="0.15" stop-color="#3AD555"/>
<stop offset="0.25" stop-color="#53E459"/>
<stop offset="0.36" stop-color="#66F05B"/>
<stop offset="0.5" stop-color="#73F85D"/>
<stop offset="0.67" stop-color="#7BFD5E"/>
<stop offset="1" stop-color="#7EFF5F"/>
</linearGradient>
<linearGradient id="paint10_linear_4378_31415" x1="355.09" y1="305.292" x2="347.632" y2="362.71" gradientUnits="userSpaceOnUse">
<stop stop-color="#08B64F"/>
<stop offset="0.05" stop-color="#1DC351"/>
<stop offset="0.15" stop-color="#3AD555"/>
<stop offset="0.25" stop-color="#53E459"/>
<stop offset="0.36" stop-color="#66F05B"/>
<stop offset="0.5" stop-color="#73F85D"/>
<stop offset="0.67" stop-color="#7BFD5E"/>
<stop offset="1" stop-color="#7EFF5F"/>
</linearGradient>
<linearGradient id="paint11_linear_4378_31415" x1="346.604" y1="379.285" x2="343.622" y2="452.617" gradientUnits="userSpaceOnUse">
<stop stop-color="#08B64F"/>
<stop offset="0.05" stop-color="#1DC351"/>
<stop offset="0.15" stop-color="#3AD555"/>
<stop offset="0.25" stop-color="#53E459"/>
<stop offset="0.36" stop-color="#66F05B"/>
<stop offset="0.5" stop-color="#73F85D"/>
<stop offset="0.67" stop-color="#7BFD5E"/>
<stop offset="1" stop-color="#7EFF5F"/>
</linearGradient>
<linearGradient id="paint12_linear_4378_31415" x1="352.533" y1="202.802" x2="344.703" y2="249.784" gradientUnits="userSpaceOnUse">
<stop stop-color="#68CF4E"/>
<stop offset="0.18" stop-color="#5DC74C"/>
<stop offset="0.5" stop-color="#3FB346"/>
<stop offset="0.92" stop-color="#10933E"/>
<stop offset="1" stop-color="#068C3D"/>
</linearGradient>
<linearGradient id="paint13_linear_4378_31415" x1="569.999" y1="267.736" x2="550.61" y2="360.952" gradientUnits="userSpaceOnUse">
<stop offset="0.03" stop-color="#08B64F"/>
<stop offset="0.14" stop-color="#24C752"/>
<stop offset="0.29" stop-color="#44DB57"/>
<stop offset="0.45" stop-color="#5DEB5A"/>
<stop offset="0.62" stop-color="#6FF65D"/>
<stop offset="0.8" stop-color="#7AFC5E"/>
<stop offset="1" stop-color="#7EFF5F"/>
</linearGradient>
<linearGradient id="paint14_linear_4378_31415" x1="554.979" y1="368.855" x2="543.045" y2="456.854" gradientUnits="userSpaceOnUse">
<stop stop-color="#08B64F"/>
<stop offset="0.12" stop-color="#24C752"/>
<stop offset="0.28" stop-color="#44DB57"/>
<stop offset="0.44" stop-color="#5DEB5A"/>
<stop offset="0.61" stop-color="#6FF65D"/>
<stop offset="0.79" stop-color="#7AFC5E"/>
<stop offset="1" stop-color="#7EFF5F"/>
</linearGradient>
<linearGradient id="paint15_linear_4378_31415" x1="557.105" y1="242.117" x2="548.156" y2="295.812" gradientUnits="userSpaceOnUse">
<stop offset="0.28" stop-color="#68CF4E"/>
<stop offset="0.41" stop-color="#5DC74C"/>
<stop offset="0.64" stop-color="#3FB346"/>
<stop offset="0.94" stop-color="#10933E"/>
<stop offset="1" stop-color="#068C3D"/>
</linearGradient>
<linearGradient id="paint16_linear_4378_31415" x1="119.665" y1="267.736" x2="139.054" y2="360.952" gradientUnits="userSpaceOnUse">
<stop offset="0.03" stop-color="#08B64F"/>
<stop offset="0.14" stop-color="#24C752"/>
<stop offset="0.29" stop-color="#44DB57"/>
<stop offset="0.45" stop-color="#5DEB5A"/>
<stop offset="0.62" stop-color="#6FF65D"/>
<stop offset="0.8" stop-color="#7AFC5E"/>
<stop offset="1" stop-color="#7EFF5F"/>
</linearGradient>
<linearGradient id="paint17_linear_4378_31415" x1="134.686" y1="-198.165" x2="146.619" y2="456.854" gradientUnits="userSpaceOnUse">
<stop stop-color="#08B64F"/>
<stop offset="0.12" stop-color="#24C752"/>
<stop offset="0.28" stop-color="#44DB57"/>
<stop offset="0.44" stop-color="#5DEB5A"/>
<stop offset="0.61" stop-color="#6FF65D"/>
<stop offset="0.79" stop-color="#7AFC5E"/>
<stop offset="1" stop-color="#7EFF5F"/>
</linearGradient>
<linearGradient id="paint18_linear_4378_31415" x1="132.562" y1="-198.166" x2="141.511" y2="295.812" gradientUnits="userSpaceOnUse">
<stop offset="0.28" stop-color="#68CF4E"/>
<stop offset="0.41" stop-color="#5DC74C"/>
<stop offset="0.64" stop-color="#3FB346"/>
<stop offset="0.94" stop-color="#10933E"/>
<stop offset="1" stop-color="#068C3D"/>
</linearGradient>
<linearGradient id="paint19_linear_4378_31415" x1="187.391" y1="442.476" x2="188.911" y2="455.322" gradientUnits="userSpaceOnUse">
<stop stop-color="#08B64F"/>
<stop offset="0.63" stop-color="#037933"/>
<stop offset="1" stop-color="#005522"/>
</linearGradient>
<linearGradient id="paint20_linear_4378_31415" x1="70.0087" y1="437.695" x2="76.7221" y2="462.304" gradientUnits="userSpaceOnUse">
<stop stop-color="#08B64F"/>
<stop offset="0.63" stop-color="#037933"/>
<stop offset="1" stop-color="#005522"/>
</linearGradient>
</defs>
</svg>
